<?xml version="1.0" encoding="UTF-8"?>
<!DOCTYPE svg PUBLIC "-//W3C//DTD SVG 1.1//EN" "http://www.w3.org/Graphics/SVG/1.1/DTD/svg11.dtd">
<!-- Creator: CorelDRAW X6 -->
<svg xmlns="http://www.w3.org/2000/svg" xml:space="preserve" width="185px" height="200px" version="1.1" style="shape-rendering:geometricPrecision; text-rendering:geometricPrecision; image-rendering:optimizeQuality; fill-rule:evenodd; clip-rule:evenodd"
viewBox="0 0 4163 4486"
 xmlns:xlink="http://www.w3.org/1999/xlink">
 <defs>
  <style type="text/css">
   <![CDATA[
    .str0 {stroke:black;stroke-width:26.8743}
    .fil0 {fill:yellow}
   ]]>
  </style>
 </defs>
 <g id="Слой_x0020_1">
  <metadata id="CorelCorpID_0Corel-Layer"/>
  <path class="fil0 str0" d="M2922 834l-553 506 -446 -1280 -169 1436 -534 -512 12 627 -487 -281 156 561 -862 220 877 421 -389 628 671 -119 -140 880 542 -331 44 864 232 -255 86 -192 196 -361 263 212 196 206 -59 -671 763 10 -261 -606 1061 -348 -997 -382 507 -733 -843 194 131 -693zm-1571 1113l344 245 -70 -400 295 312 67 -414 140 446 274 -417 -67 414 507 -248 -373 362 478 120 -636 155 408 402 -537 -149 55 414 -216 -379 -114 464 -44 -665 -347 385 195 -507 -499 44 338 -201 -414 -152 295 0 -82 -230z"/>
 </g>
</svg>
